<svg id="Layer_1" data-name="Layer 1" xmlns="http://www.w3.org/2000/svg" viewBox="0 0 445.49 699.73"><defs><style>.cls-1{fill:#333;}</style></defs><title>nomad</title><path d="M473.15,86.18c56,30.23,97.84,45.67,131.66,118.47,37.3,80.26,4.84,171.42,4.84,171.42-1.87,6.75-4,13-4.84,16a36.83,36.83,0,0,1-2,6.77c-29.8,32.56-41.31,73.63-55,114.1-8.35,24.74-18.89,49.37-32.49,71.57C493.55,620.06,469,654,444.58,687.78c-25.4,35.14-63.68,50.72-103.44,61.82-6.87,1.92-23.47-6.93-24.68-13-5.56-27.76-23.63-47.27-30-78.26-2.08-10-12.45-22.59-18.31-34.49-8.73-17.7-16.18-36-24.87-53.76-5.81-11.84-13.32-22.83-19.22-34.63-15.77-31.56-31.84-63-45.93-95.34-2.72-6.23,1.84-16.67,5.12-24.28,6.63-15.39,16.34-29.62,21.46-45.4,2.77-8.53-1.1-19.31-2.37-29-2.73-20.78-7.49-41.47-8.21-62.3C192.58,236,210,194.77,205.64,150.41c-5.87-59.5,24.5-93.61,84.84-99.45,22.7-2.2,46.48.23,69,4.64,16.1,3.17,27.49,1.59,48.46,7.85C407.9,63.45,420.75,67.73,473.15,86.18ZM440.71,368.67c-26.55-17.33-51.77-39.08-81-51.39-30.33-12.8-64.19-19-97.13-23.06-16.7-2-37.52,3.2-51,12.8-6.81,4.84-1.57,26.76-1.6,41,0,12,2.29,24.53-.19,36-2.92,13.55-9.89,26.22-15.14,39.37,56.09,17.37,55,15.16,101.3-8.21,21-10.61,47.45-10.56,71.46-15.16,7.39-1.41,15.68-.55,22.18-3.63C406.06,388.55,421.75,379.09,440.71,368.67Zm-18.87-78.19-9.71,9.64,45,46.13,8.9-8.6Zm-20.69,22,4.91-5c-7.52-20.68-18.7-37.71-41.89-42.74l-6,6.08Zm-55.56-30.64,7.88-9.39-40.53-29.24-6.14,8.14Zm-86.86-43.66-4.23,13.5,41.35,10.87,3.21-10.83Zm-54.65,29.93,39.6-5.91,1.2-7.52c-11.13-3-22.18-6.73-33.51-8.11C210,246.44,207.1,259,204.08,268.14Z" transform="translate(-177.26 -50.13)"/><path class="cls-1" d="M340.58,366.85l.9,8.79" transform="translate(-177.26 -50.13)"/></svg>